# xmcd
#
# Track frame offsets:
#	150
#	12005
#	29227
#	45682
#	63465
#	82695
#	98410
#	108875
#	123377
#	135262
#	150220
#	168530
#	186215
#	199862
#	211310
#	220550
#	232477
#	244857
#
# Disc length: 3434 seconds
#
# Revision: 1
# Processed by: cddbd v1.5.2PL0 Copyright (c) Steve Scherf et al.
# Submitted via: audiograbber 1.83.01
#
DISCID=ea0d6812
DTITLE=Various Artist - CDXmas 1992
DYEAR=1992
DGENRE=Christmas
TTITLE0=Doug Stone - All I Want For Christmas Is You
TTITLE1=Vince Vance And The Valiants - All I Want For Christmas Is You
TTITLE2=Doug Wayne - Almost Time For Christmas
TTITLE3=Clinton Gregory - Christmas In Virgina
TTITLE4=Susie Luchsinger - Christmas Medley
TTITLE5=Bellamy Brothers - Having A Tropical Christmas
TTITLE6=Alan Jackson - Holly Jolly Christmas
TTITLE7=Bellamy Brothers - It's Close To Christmas (And Im So Far From Home)
TTITLE8=The Geezinslaws - Lighten Up It's Christmas
TTITLE9=Mark Johnson - My Family Christmas Tree
TTITLE10=Doug Stone - Sailing Home For Christmas
TTITLE11=The Royal Court Of China w Various Artist - Santa Claus Is Back In Tow
TTITLE11=n
TTITLE12=Caroling Cattle - Santa Cow
TTITLE13=Travis Tritt - Santa Looked A lot Like Daddy
TTITLE14=Riders In The Sky - Sidemeat's Christmas Goose
TTITLE15=Garth Brooks - The Old Mans Back In Town
TTITLE16=Suzy Bogguss - Two Step Around The Christmas Tree
TTITLE17=Travis Tritt - Winter Wonder Land
EXTD=Country Christmas\n
EXTT0=
EXTT1=
EXTT2=
EXTT3=
EXTT4=
EXTT5=
EXTT6=
EXTT7=
EXTT8=
EXTT9=
EXTT10=
EXTT11=
EXTT12=
EXTT13=
EXTT14=
EXTT15=
EXTT16=
EXTT17=
PLAYORDER=
